<svg width="41" height="41" viewBox="0 0 41 41" fill="none" xmlns="http://www.w3.org/2000/svg">
<circle cx="20.5" cy="20.5" r="20.5" fill="black"/>
<path d="M19.8453 37.1173C17.7333 37.1173 15.6373 36.7333 13.5573 35.9653C11.5093 35.1973 9.63732 34.0773 7.94132 32.6053L12.0213 27.7573C13.2053 28.7173 14.5013 29.5013 15.9093 30.1093C17.3493 30.7173 18.8213 31.0213 20.3253 31.0213C21.8293 31.0213 22.9333 30.7653 23.6373 30.2533C24.3733 29.7413 24.7413 29.0853 24.7413 28.2853C24.7413 27.5493 24.5493 26.9733 24.1653 26.5573C23.7813 26.1093 23.2213 25.7253 22.4853 25.4053C21.7493 25.0533 20.8853 24.6693 19.8933 24.2533L15.8613 22.5253C14.7093 22.0773 13.6213 21.4853 12.5973 20.7493C11.5733 19.9813 10.7413 19.0533 10.1013 17.9653C9.49332 16.8453 9.18932 15.5173 9.18932 13.9813C9.18932 12.2533 9.66932 10.7013 10.6293 9.32531C11.6213 7.91731 12.9653 6.79731 14.6613 5.96531C16.3893 5.10131 18.3893 4.66931 20.6613 4.66931C22.5493 4.66931 24.4053 5.02131 26.2293 5.72531C28.0533 6.42931 29.6693 7.45331 31.0773 8.79731L27.4773 13.2613C26.3893 12.4613 25.3013 11.8533 24.2133 11.4373C23.1253 10.9893 21.8133 10.7653 20.2773 10.7653C19.1253 10.7653 18.1813 11.0053 17.4453 11.4853C16.7093 11.9653 16.3413 12.6693 16.3413 13.5973C16.3413 14.2053 16.5653 14.7173 17.0133 15.1333C17.4613 15.5493 18.0693 15.9173 18.8373 16.2373C19.6053 16.5573 20.4853 16.9093 21.4773 17.2933L25.2693 18.9253C26.6773 19.4373 27.8773 20.0773 28.8693 20.8453C29.8613 21.5813 30.6293 22.4933 31.1733 23.5813C31.7173 24.6693 31.9893 25.9493 31.9893 27.4213C31.9893 29.1493 31.5093 30.7493 30.5493 32.2213C29.6213 33.6933 28.2453 34.8773 26.4213 35.7733C24.6293 36.6693 22.4373 37.1173 19.8453 37.1173Z" fill="black"/>
<path d="M19.8453 37.1173C17.7333 37.1173 15.6373 36.7333 13.5573 35.9653C11.5093 35.1973 9.63732 34.0773 7.94132 32.6053L12.0213 27.7573C13.2053 28.7173 14.5013 29.5013 15.9093 30.1093C17.3493 30.7173 18.8213 31.0213 20.3253 31.0213C21.8293 31.0213 22.9333 30.7653 23.6373 30.2533C24.3733 29.7413 24.7413 29.0853 24.7413 28.2853C24.7413 27.5493 24.5493 26.9733 24.1653 26.5573C23.7813 26.1093 23.2213 25.7253 22.4853 25.4053C21.7493 25.0533 20.8853 24.6693 19.8933 24.2533L15.8613 22.5253C14.7093 22.0773 13.6213 21.4853 12.5973 20.7493C11.5733 19.9813 10.7413 19.0533 10.1013 17.9653C9.49332 16.8453 9.18932 15.5173 9.18932 13.9813C9.18932 12.2533 9.66932 10.7013 10.6293 9.32531C11.6213 7.91731 12.9653 6.79731 14.6613 5.96531C16.3893 5.10131 18.3893 4.66931 20.6613 4.66931C22.5493 4.66931 24.4053 5.02131 26.2293 5.72531C28.0533 6.42931 29.6693 7.45331 31.0773 8.79731L27.4773 13.2613C26.3893 12.4613 25.3013 11.8533 24.2133 11.4373C23.1253 10.9893 21.8133 10.7653 20.2773 10.7653C19.1253 10.7653 18.1813 11.0053 17.4453 11.4853C16.7093 11.9653 16.3413 12.6693 16.3413 13.5973C16.3413 14.2053 16.5653 14.7173 17.0133 15.1333C17.4613 15.5493 18.0693 15.9173 18.8373 16.2373C19.6053 16.5573 20.4853 16.9093 21.4773 17.2933L25.2693 18.9253C26.6773 19.4373 27.8773 20.0773 28.8693 20.8453C29.8613 21.5813 30.6293 22.4933 31.1733 23.5813C31.7173 24.6693 31.9893 25.9493 31.9893 27.4213C31.9893 29.1493 31.5093 30.7493 30.5493 32.2213C29.6213 33.6933 28.2453 34.8773 26.4213 35.7733C24.6293 36.6693 22.4373 37.1173 19.8453 37.1173Z" fill="url(#paint0_linear_101_20)"/>
<path d="M19.8453 37.1173C17.7333 37.1173 15.6373 36.7333 13.5573 35.9653C11.5093 35.1973 9.63732 34.0773 7.94132 32.6053L12.0213 27.7573C13.2053 28.7173 14.5013 29.5013 15.9093 30.1093C17.3493 30.7173 18.8213 31.0213 20.3253 31.0213C21.8293 31.0213 22.9333 30.7653 23.6373 30.2533C24.3733 29.7413 24.7413 29.0853 24.7413 28.2853C24.7413 27.5493 24.5493 26.9733 24.1653 26.5573C23.7813 26.1093 23.2213 25.7253 22.4853 25.4053C21.7493 25.0533 20.8853 24.6693 19.8933 24.2533L15.8613 22.5253C14.7093 22.0773 13.6213 21.4853 12.5973 20.7493C11.5733 19.9813 10.7413 19.0533 10.1013 17.9653C9.49332 16.8453 9.18932 15.5173 9.18932 13.9813C9.18932 12.2533 9.66932 10.7013 10.6293 9.32531C11.6213 7.91731 12.9653 6.79731 14.6613 5.96531C16.3893 5.10131 18.3893 4.66931 20.6613 4.66931C22.5493 4.66931 24.4053 5.02131 26.2293 5.72531C28.0533 6.42931 29.6693 7.45331 31.0773 8.79731L27.4773 13.2613C26.3893 12.4613 25.3013 11.8533 24.2133 11.4373C23.1253 10.9893 21.8133 10.7653 20.2773 10.7653C19.1253 10.7653 18.1813 11.0053 17.4453 11.4853C16.7093 11.9653 16.3413 12.6693 16.3413 13.5973C16.3413 14.2053 16.5653 14.7173 17.0133 15.1333C17.4613 15.5493 18.0693 15.9173 18.8373 16.2373C19.6053 16.5573 20.4853 16.9093 21.4773 17.2933L25.2693 18.9253C26.6773 19.4373 27.8773 20.0773 28.8693 20.8453C29.8613 21.5813 30.6293 22.4933 31.1733 23.5813C31.7173 24.6693 31.9893 25.9493 31.9893 27.4213C31.9893 29.1493 31.5093 30.7493 30.5493 32.2213C29.6213 33.6933 28.2453 34.8773 26.4213 35.7733C24.6293 36.6693 22.4373 37.1173 19.8453 37.1173Z" fill="#4053FF" fill-opacity="0.6"/>
<defs>
<linearGradient id="paint0_linear_101_20" x1="21.5413" y1="3.54131" x2="21.5413" y2="58.0413" gradientUnits="userSpaceOnUse">
<stop stop-color="#FF8413"/>
<stop offset="1" stop-color="white" stop-opacity="0"/>
</linearGradient>
</defs>
</svg>
