<svg width="43" height="43" viewBox="0 0 43 43" fill="none" xmlns="http://www.w3.org/2000/svg">
<circle cx="21.5" cy="21.5" r="21.5" fill="black"/>
<path d="M22.0862 32.216C21.6062 32.216 21.0902 32.18 20.5382 32.108C19.9862 32.036 19.4462 31.952 18.9182 31.856C18.4142 31.736 17.9462 31.616 17.5142 31.496C17.0822 31.352 16.7462 31.208 16.5062 31.064C16.0502 30.8 15.6902 30.416 15.4262 29.912C15.1622 29.408 15.0302 28.916 15.0302 28.436C15.0302 27.98 15.1382 27.632 15.3542 27.392C15.5702 27.128 15.8102 26.996 16.0742 26.996C16.2902 26.996 16.7702 27.296 17.5142 27.896C18.2102 28.496 18.9062 28.94 19.6022 29.228C20.3222 29.516 21.2102 29.66 22.2662 29.66C23.3462 29.66 24.2102 29.384 24.8582 28.832C25.5062 28.28 25.8302 27.488 25.8302 26.456C25.8302 25.952 25.7342 25.52 25.5422 25.16C25.3742 24.8 25.0862 24.464 24.6782 24.152C24.2702 23.84 23.7422 23.516 23.0942 23.18C22.4702 22.844 21.6902 22.46 20.7542 22.028C20.0102 21.668 19.3142 21.308 18.6662 20.948C18.0182 20.564 17.4422 20.132 16.9382 19.652C16.4582 19.148 16.0742 18.572 15.7862 17.924C15.5222 17.252 15.3902 16.46 15.3902 15.548C15.3902 13.916 16.0382 12.596 17.3342 11.588C18.6302 10.556 20.5142 10.04 22.9862 10.04C24.4982 10.04 25.7582 10.256 26.7662 10.688C27.2462 10.904 27.6422 11.264 27.9542 11.768C28.2662 12.248 28.4222 12.692 28.4222 13.1C28.4222 14.108 28.0862 14.612 27.4142 14.612C27.2462 14.612 26.6222 14.252 25.5422 13.532C24.4382 12.812 23.3462 12.452 22.2662 12.452C21.1862 12.452 20.3102 12.704 19.6382 13.208C18.9662 13.712 18.6302 14.42 18.6302 15.332C18.6302 15.788 18.7022 16.184 18.8462 16.52C19.0142 16.856 19.2782 17.18 19.6382 17.492C20.0222 17.804 20.5262 18.128 21.1502 18.464C21.7982 18.8 22.6022 19.184 23.5622 19.616C24.3302 19.952 25.0502 20.312 25.7222 20.696C26.4182 21.08 27.0302 21.524 27.5582 22.028C28.0862 22.532 28.5062 23.132 28.8182 23.828C29.1302 24.5 29.2862 25.304 29.2862 26.24C29.2862 26.672 29.2382 27.092 29.1422 27.5C29.0462 27.884 28.9142 28.268 28.7462 28.652C28.1462 29.876 27.2222 30.776 25.9742 31.352C24.7502 31.928 23.4902 32.216 22.1942 32.216H22.0862Z" fill="#E0E0E0"/>
</svg>
