<svg width="17" height="23" viewBox="0 0 17 23" fill="none" xmlns="http://www.w3.org/2000/svg">
<path d="M7.94226 22.384C6.53426 22.384 5.13692 22.128 3.75025 21.616C2.38492 21.104 1.13692 20.3573 0.00625289 19.376L2.72625 16.144C3.51559 16.784 4.37959 17.3067 5.31825 17.712C6.27826 18.1173 7.25959 18.32 8.26226 18.32C9.26492 18.32 10.0009 18.1493 10.4703 17.808C10.9609 17.4667 11.2063 17.0293 11.2063 16.496C11.2063 16.0053 11.0783 15.6213 10.8223 15.344C10.5663 15.0453 10.1929 14.7893 9.70226 14.576C9.21159 14.3413 8.63559 14.0853 7.97426 13.808L5.28625 12.656C4.51825 12.3573 3.79292 11.9627 3.11025 11.472C2.42759 10.96 1.87292 10.3413 1.44625 9.616C1.04092 8.86934 0.838253 7.984 0.838253 6.96C0.838253 5.808 1.15825 4.77334 1.79825 3.856C2.45959 2.91734 3.35559 2.17067 4.48625 1.616C5.63826 1.04 6.97159 0.752001 8.48626 0.752001C9.74492 0.752001 10.9823 0.986668 12.1983 1.456C13.4143 1.92534 14.4916 2.608 15.4303 3.504L13.0303 6.48C12.3049 5.94667 11.5796 5.54134 10.8543 5.264C10.1289 4.96534 9.25426 4.816 8.23026 4.816C7.46226 4.816 6.83292 4.976 6.34226 5.296C5.85159 5.616 5.60626 6.08534 5.60626 6.704C5.60626 7.10934 5.75559 7.45067 6.05426 7.728C6.35292 8.00534 6.75826 8.25067 7.27026 8.464C7.78226 8.67734 8.36892 8.912 9.03026 9.168L11.5583 10.256C12.4969 10.5973 13.2969 11.024 13.9583 11.536C14.6196 12.0267 15.1316 12.6347 15.4943 13.36C15.8569 14.0853 16.0383 14.9387 16.0383 15.92C16.0383 17.072 15.7183 18.1387 15.0783 19.12C14.4596 20.1013 13.5423 20.8907 12.3263 21.488C11.1316 22.0853 9.67026 22.384 7.94226 22.384Z" fill="black"/>
<path d="M7.94226 22.384C6.53426 22.384 5.13692 22.128 3.75025 21.616C2.38492 21.104 1.13692 20.3573 0.00625289 19.376L2.72625 16.144C3.51559 16.784 4.37959 17.3067 5.31825 17.712C6.27826 18.1173 7.25959 18.32 8.26226 18.32C9.26492 18.32 10.0009 18.1493 10.4703 17.808C10.9609 17.4667 11.2063 17.0293 11.2063 16.496C11.2063 16.0053 11.0783 15.6213 10.8223 15.344C10.5663 15.0453 10.1929 14.7893 9.70226 14.576C9.21159 14.3413 8.63559 14.0853 7.97426 13.808L5.28625 12.656C4.51825 12.3573 3.79292 11.9627 3.11025 11.472C2.42759 10.96 1.87292 10.3413 1.44625 9.616C1.04092 8.86934 0.838253 7.984 0.838253 6.96C0.838253 5.808 1.15825 4.77334 1.79825 3.856C2.45959 2.91734 3.35559 2.17067 4.48625 1.616C5.63826 1.04 6.97159 0.752001 8.48626 0.752001C9.74492 0.752001 10.9823 0.986668 12.1983 1.456C13.4143 1.92534 14.4916 2.608 15.4303 3.504L13.0303 6.48C12.3049 5.94667 11.5796 5.54134 10.8543 5.264C10.1289 4.96534 9.25426 4.816 8.23026 4.816C7.46226 4.816 6.83292 4.976 6.34226 5.296C5.85159 5.616 5.60626 6.08534 5.60626 6.704C5.60626 7.10934 5.75559 7.45067 6.05426 7.728C6.35292 8.00534 6.75826 8.25067 7.27026 8.464C7.78226 8.67734 8.36892 8.912 9.03026 9.168L11.5583 10.256C12.4969 10.5973 13.2969 11.024 13.9583 11.536C14.6196 12.0267 15.1316 12.6347 15.4943 13.36C15.8569 14.0853 16.0383 14.9387 16.0383 15.92C16.0383 17.072 15.7183 18.1387 15.0783 19.12C14.4596 20.1013 13.5423 20.8907 12.3263 21.488C11.1316 22.0853 9.67026 22.384 7.94226 22.384Z" fill="url(#paint0_linear_101_6)"/>
<path d="M7.94226 22.384C6.53426 22.384 5.13692 22.128 3.75025 21.616C2.38492 21.104 1.13692 20.3573 0.00625289 19.376L2.72625 16.144C3.51559 16.784 4.37959 17.3067 5.31825 17.712C6.27826 18.1173 7.25959 18.32 8.26226 18.32C9.26492 18.32 10.0009 18.1493 10.4703 17.808C10.9609 17.4667 11.2063 17.0293 11.2063 16.496C11.2063 16.0053 11.0783 15.6213 10.8223 15.344C10.5663 15.0453 10.1929 14.7893 9.70226 14.576C9.21159 14.3413 8.63559 14.0853 7.97426 13.808L5.28625 12.656C4.51825 12.3573 3.79292 11.9627 3.11025 11.472C2.42759 10.96 1.87292 10.3413 1.44625 9.616C1.04092 8.86934 0.838253 7.984 0.838253 6.96C0.838253 5.808 1.15825 4.77334 1.79825 3.856C2.45959 2.91734 3.35559 2.17067 4.48625 1.616C5.63826 1.04 6.97159 0.752001 8.48626 0.752001C9.74492 0.752001 10.9823 0.986668 12.1983 1.456C13.4143 1.92534 14.4916 2.608 15.4303 3.504L13.0303 6.48C12.3049 5.94667 11.5796 5.54134 10.8543 5.264C10.1289 4.96534 9.25426 4.816 8.23026 4.816C7.46226 4.816 6.83292 4.976 6.34226 5.296C5.85159 5.616 5.60626 6.08534 5.60626 6.704C5.60626 7.10934 5.75559 7.45067 6.05426 7.728C6.35292 8.00534 6.75826 8.25067 7.27026 8.464C7.78226 8.67734 8.36892 8.912 9.03026 9.168L11.5583 10.256C12.4969 10.5973 13.2969 11.024 13.9583 11.536C14.6196 12.0267 15.1316 12.6347 15.4943 13.36C15.8569 14.0853 16.0383 14.9387 16.0383 15.92C16.0383 17.072 15.7183 18.1387 15.0783 19.12C14.4596 20.1013 13.5423 20.8907 12.3263 21.488C11.1316 22.0853 9.67026 22.384 7.94226 22.384Z" fill="#4053FF" fill-opacity="0.6"/>
<path d="M-1.59375 25.2L17.6063 25.2V26.8L-1.59375 26.8V25.2Z" fill="black"/>
<path d="M-1.59375 25.2L17.6063 25.2V26.8L-1.59375 26.8V25.2Z" fill="url(#paint1_linear_101_6)"/>
<path d="M-1.59375 25.2L17.6063 25.2V26.8L-1.59375 26.8V25.2Z" fill="#4053FF" fill-opacity="0.6"/>
<defs>
<linearGradient id="paint0_linear_101_6" x1="8.00001" y1="-5" x2="8.00001" y2="49.5" gradientUnits="userSpaceOnUse">
<stop stop-color="#FF8413"/>
<stop offset="1" stop-color="white" stop-opacity="0"/>
</linearGradient>
<linearGradient id="paint1_linear_101_6" x1="8.00001" y1="-5" x2="8.00001" y2="49.5" gradientUnits="userSpaceOnUse">
<stop stop-color="#FF8413"/>
<stop offset="1" stop-color="white" stop-opacity="0"/>
</linearGradient>
</defs>
</svg>
